# xmcd
#
# Track frame offsets:
# 150
# 15607
# 31186
# 46547
# 59428
# 73606
# 85306
# 98610
# 112159
# 129192
# 146752
# 162410
# 181062
# 194678
# 208115
# 223927
# 238435
# 253621
# 267897
# 282221
#
# Disc length: 3934 seconds
#
#
# Revision: 0
# Processed by: cddbd v1.5.2PL0 Copyright (c) Steve Scherf et al.
# Submitted via: FreeRIP 2.95 
#
DISCID=2b0f5c14
DTITLE=Varios - Pancadão Sertanejo 2006
DYEAR=2006
DGENRE=Sertanejo
TTITLE0=Pancadão
TTITLE1=A Gente Vai
TTITLE2=Louco Por Mulher
TTITLE3=Mulher Sempre Mulher
TTITLE4=Coisa Boa E Mulher
TTITLE5=Meto  O Pe Na Cara Dele
TTITLE6=Na Vara
TTITLE7=Sou Feio Mais To Na Moda
TTITLE8=Que Qui Tem Que Qui Tem
TTITLE9=Bobao
TTITLE10=Na Roda Do Seu Coracao
TTITLE11=Coisa De Peao
TTITLE12=Cuidado Com O Casamento
TTITLE13=Pinga Na Cuca
TTITLE14=Ta Pegando
TTITLE15=A Galera Do Chapeu
TTITLE16=Eu Tenho Fe
TTITLE17=Assovia
TTITLE18=Melhor Pingar Do Que Secar
TTITLE19=Hoje Eu Posso Chorar
EXTD=
EXTT0=
EXTT1=
EXTT2=
EXTT3=
EXTT4=
EXTT5=
EXTT6=
EXTT7=
EXTT8=
EXTT9=
EXTT10=
EXTT11=
EXTT12=
EXTT13=
EXTT14=
EXTT15=
EXTT16=
EXTT17=
EXTT18=
EXTT19=
PLAYORDER=
